<svg width="176" height="179" viewBox="0 0 176 179" fill="none" xmlns="http://www.w3.org/2000/svg">
<path d="M174.384 73.2092H89.7911V107.843H138.117C136.033 119.038 129.711 128.507 120.182 134.851C112.128 140.215 101.849 143.387 89.7677 143.387C66.3775 143.387 46.5931 127.644 39.5221 106.49C37.7427 101.126 36.7125 95.3889 36.7125 89.4883C36.7125 83.5878 37.7427 77.8504 39.5221 72.4863C46.6165 51.3561 66.401 35.6134 89.7911 35.6134C102.973 35.6134 114.797 40.138 124.115 49.0005L149.87 23.3225C134.3 8.86254 114.001 0 89.7911 0C54.6942 0 24.3267 20.0573 9.55275 49.3037C3.46521 61.3848 0 75.0517 0 89.5117C0 103.972 3.46521 117.615 9.55275 129.696C24.3267 158.943 54.6942 179 89.7911 179C114.048 179 134.371 170.977 149.215 157.31C166.19 141.731 176 118.781 176 91.5174C176 85.1737 175.438 79.0865 174.384 73.2092Z" fill="#FAFAFA"/>
</svg>
