<svg width="23" height="24" viewBox="0 0 23 24" fill="none" xmlns="http://www.w3.org/2000/svg">
<path d="M10.6691 0.00703812C8.93068 0.180676 7.62013 0.574877 6.19698 1.33982C4.02624 2.51303 2.27433 4.3761 1.18896 6.66622C0.770119 7.54379 0.576464 8.08347 0.355786 8.94696C0.0855688 10.0357 0.00450362 10.6974 0 11.8988C0 12.4995 0.0225181 13.1471 0.0540435 13.4005C0.301743 15.3246 0.878206 16.9812 1.84649 18.5298L2.17075 19.0507L1.45467 21.2517C1.05835 22.4671 0.743098 23.462 0.752105 23.4714C0.761112 23.4808 1.7429 23.1617 2.94087 22.7628C4.13883 22.3639 5.13413 22.0354 5.15665 22.0354C5.17466 22.0354 5.35931 22.1433 5.56648 22.2794C5.77364 22.4108 6.20599 22.6548 6.52575 22.8144C9.43959 24.2645 12.7678 24.3912 15.7492 23.157C19.1269 21.7632 21.721 18.7081 22.6487 15.0383C22.9324 13.912 23 13.2973 23 11.9926C23 10.688 22.9324 10.0732 22.6487 8.94696C21.5588 4.6436 18.2487 1.29758 14.0693 0.279224C13.3668 0.110281 12.6372 0.0211163 11.75 0.00703812C11.2546 -0.00234795 10.7682 -0.00234795 10.6691 0.00703812ZM7.92187 5.57278C7.99843 5.61502 8.10202 5.72765 8.15606 5.83089C8.28667 6.07961 9.38555 8.82495 9.41708 8.99389C9.45761 9.20507 9.25494 9.56642 8.80909 10.092C8.34071 10.6411 8.24163 10.8147 8.28216 11.0118C8.35872 11.3685 9.39906 12.8092 10.0431 13.4427C11.0384 14.4235 12.5426 15.3574 13.2136 15.409C13.5604 15.4325 13.682 15.334 14.2134 14.6019C14.4521 14.2687 14.7043 13.9355 14.7809 13.8604C14.952 13.6774 15.2087 13.6398 15.5015 13.7525C15.8708 13.8979 18.1361 15.0477 18.2982 15.1744L18.4513 15.2917L18.4243 15.7892C18.3613 17.0656 17.9289 17.7273 16.794 18.3045C15.7131 18.8536 14.8665 18.8395 13.2136 18.2435C10.9888 17.4411 9.81339 16.6761 8.21461 15.0008C7.41296 14.1654 6.84551 13.4568 6.19698 12.4854C5.12512 10.8898 4.71529 9.65558 4.83689 8.40259C4.93597 7.39831 5.27374 6.65684 5.95379 5.94821C6.28255 5.60563 6.7104 5.46485 7.35892 5.48831C7.63364 5.4977 7.8363 5.52586 7.92187 5.57278Z" fill="url(#paint0_linear_254_231)"/>
<defs>
<linearGradient id="paint0_linear_254_231" x1="2.61364" y1="24" x2="16.1714" y2="5.71457" gradientUnits="userSpaceOnUse">
<stop stop-color="#217FEC"/>
<stop offset="1" stop-color="#E15E79"/>
</linearGradient>
</defs>
</svg>
