<svg width="124" height="23" viewBox="0 0 124 23" fill="none" xmlns="http://www.w3.org/2000/svg">
<path d="M11.1039 0L13.5969 7.67259H21.6643L15.1376 12.4145L17.6306 20.0871L11.1039 15.3452L4.57718 20.0871L7.07016 12.4145L0.543463 7.67259H8.6109L11.1039 0Z" fill="#1E91F6"/>
<path d="M37.5519 0L40.0449 7.67259H48.1124L41.5857 12.4145L44.0786 20.0871L37.5519 15.3452L31.0252 20.0871L33.5182 12.4145L26.9915 7.67259H35.059L37.5519 0Z" fill="#1E91F6"/>
<path d="M64 0L66.493 7.67259H74.5604L68.0337 12.4145L70.5267 20.0871L64 15.3452L57.4733 20.0871L59.9663 12.4145L53.4396 7.67259H61.507L64 0Z" fill="#1E91F6"/>
<path d="M90.4481 0L92.9411 7.67259H101.009L94.4818 12.4145L96.9748 20.0871L90.4481 15.3452L83.9214 20.0871L86.4144 12.4145L79.8877 7.67259H87.9551L90.4481 0Z" fill="#1E91F6"/>
<path fill-rule="evenodd" clip-rule="evenodd" d="M124 7.67259H119.389L116.896 0L114.403 7.67259H106.336L112.862 12.4145L110.369 20.0871L116.896 15.3452L123.423 20.0871L120.93 12.4145L124 10.1839V7.67259Z" fill="#1E91F6"/>
</svg>
