<svg width="91" height="16" viewBox="0 0 91 16" fill="none" xmlns="http://www.w3.org/2000/svg">
<path d="M7.85593 0L9.6197 5.42832H15.3274L10.7098 8.7832L12.4735 14.2115L7.85593 10.8566L3.23833 14.2115L5.0021 8.7832L0.384497 5.42832H6.09217L7.85593 0Z" fill="#1E91F6"/>
<path d="M26.5678 0L28.3316 5.42832H34.0392L29.4216 8.7832L31.1854 14.2115L26.5678 10.8566L21.9502 14.2115L23.714 8.7832L19.0964 5.42832H24.804L26.5678 0Z" fill="#1E91F6"/>
<path d="M45.2797 0L47.0434 5.42832H52.7511L48.1335 8.7832L49.8973 14.2115L45.2797 10.8566L40.6621 14.2115L42.4258 8.7832L37.8082 5.42832H43.5159L45.2797 0Z" fill="#1E91F6"/>
<path d="M63.9915 0L65.7553 5.42832H71.463L66.8454 8.7832L68.6091 14.2115L63.9915 10.8566L59.3739 14.2115L61.1377 8.7832L56.5201 5.42832H62.2278L63.9915 0Z" fill="#1E91F6"/>
<path d="M82.7034 0L84.4671 5.42832H90.1748L85.5572 8.7832L87.321 14.2115L82.7034 10.8566L78.0858 14.2115L79.8495 8.7832L75.2319 5.42832H80.9396L82.7034 0Z" fill="#1E91F6"/>
</svg>
